<svg xmlns="http://www.w3.org/2000/svg" width="128" height="128" viewBox="0 0 33.9 33.9">
   <path d="M94 166c4 11-4 40-12 47s-38 9-48 3c-9-6-20-34-18-45 3-10 26-29 37-30s37 15 41 25z" style="fill:#e9afaf;stroke-width:.264583" transform="matrix(.26234 -.10488 .1724 .41638 -28 -53)"/>
   <path d="M94 166c4 11-4 40-12 47s-38 9-48 3c-9-6-20-34-18-45 3-10 26-29 37-30s37 15 41 25z" style="fill:#fff;stroke:#000;stroke-width:5.12395;stroke-miterlimit:4;stroke-dasharray:none" transform="matrix(.05574 .13022 -.19005 .0793 41 -4)"/>
   <path d="M94 166c4 11-4 40-12 47s-38 9-48 3c-9-6-20-34-18-45 3-10 26-29 37-30s37 15 41 25z" style="fill:#fff;stroke:#000;stroke-width:5.12395;stroke-miterlimit:4;stroke-dasharray:none" transform="matrix(-.06955 -.12344 .17864 -.10234 -4 36)"/>
 </svg>
 